<mxfile host="app.diagrams.net" modified="2023-11-22T16:36:39.470Z" agent="Mozilla/5.0 (Windows NT 10.0; Win64; x64) AppleWebKit/537.36 (KHTML, like Gecko) Chrome/119.0.0.0 Safari/537.36" etag="ZKKr8nSxCSQIz3sCosu5" version="22.1.3" type="github">
  <diagram name="Page-1" id="DUyfwoZvvPFzIgaK6cwX">
    <mxGraphModel dx="882" dy="588" grid="1" gridSize="10" guides="1" tooltips="1" connect="1" arrows="1" fold="1" page="1" pageScale="1" pageWidth="827" pageHeight="1169" math="0" shadow="1">
      <root>
        <mxCell id="0" />
        <mxCell id="1" parent="0" />
        <mxCell id="xOZsmV_-RZfwgsU9dRdy-7" style="edgeStyle=orthogonalEdgeStyle;rounded=0;orthogonalLoop=1;jettySize=auto;html=1;exitX=1;exitY=1;exitDx=0;exitDy=0;entryX=0;entryY=0;entryDx=0;entryDy=0;" edge="1" parent="1" source="xOZsmV_-RZfwgsU9dRdy-1" target="xOZsmV_-RZfwgsU9dRdy-4">
          <mxGeometry relative="1" as="geometry" />
        </mxCell>
        <mxCell id="xOZsmV_-RZfwgsU9dRdy-13" style="edgeStyle=orthogonalEdgeStyle;rounded=0;orthogonalLoop=1;jettySize=auto;html=1;exitX=0;exitY=1;exitDx=0;exitDy=0;entryX=0.5;entryY=0;entryDx=0;entryDy=0;" edge="1" parent="1" source="xOZsmV_-RZfwgsU9dRdy-1" target="xOZsmV_-RZfwgsU9dRdy-3">
          <mxGeometry relative="1" as="geometry">
            <Array as="points">
              <mxPoint x="138" y="140" />
              <mxPoint x="102" y="140" />
              <mxPoint x="102" y="160" />
            </Array>
          </mxGeometry>
        </mxCell>
        <mxCell id="xOZsmV_-RZfwgsU9dRdy-1" value="Teacher dashboard" style="ellipse;whiteSpace=wrap;html=1;" vertex="1" parent="1">
          <mxGeometry x="120" y="40" width="120" height="80" as="geometry" />
        </mxCell>
        <mxCell id="xOZsmV_-RZfwgsU9dRdy-10" style="edgeStyle=orthogonalEdgeStyle;rounded=0;orthogonalLoop=1;jettySize=auto;html=1;exitX=0.5;exitY=1;exitDx=0;exitDy=0;entryX=0.5;entryY=0;entryDx=0;entryDy=0;" edge="1" parent="1" source="xOZsmV_-RZfwgsU9dRdy-2">
          <mxGeometry relative="1" as="geometry">
            <mxPoint x="620" y="160" as="targetPoint" />
          </mxGeometry>
        </mxCell>
        <mxCell id="xOZsmV_-RZfwgsU9dRdy-14" style="edgeStyle=orthogonalEdgeStyle;rounded=0;orthogonalLoop=1;jettySize=auto;html=1;exitX=0;exitY=0.5;exitDx=0;exitDy=0;entryX=1;entryY=0.5;entryDx=0;entryDy=0;" edge="1" parent="1" source="xOZsmV_-RZfwgsU9dRdy-2" target="xOZsmV_-RZfwgsU9dRdy-1">
          <mxGeometry relative="1" as="geometry" />
        </mxCell>
        <mxCell id="xOZsmV_-RZfwgsU9dRdy-2" value="Admin dashboard" style="ellipse;whiteSpace=wrap;html=1;" vertex="1" parent="1">
          <mxGeometry x="560" y="40" width="120" height="80" as="geometry" />
        </mxCell>
        <mxCell id="xOZsmV_-RZfwgsU9dRdy-81" style="edgeStyle=orthogonalEdgeStyle;rounded=0;orthogonalLoop=1;jettySize=auto;html=1;exitX=0.5;exitY=1;exitDx=0;exitDy=0;entryX=0.25;entryY=0;entryDx=0;entryDy=0;" edge="1" parent="1" source="xOZsmV_-RZfwgsU9dRdy-3" target="xOZsmV_-RZfwgsU9dRdy-65">
          <mxGeometry relative="1" as="geometry" />
        </mxCell>
        <mxCell id="xOZsmV_-RZfwgsU9dRdy-3" value="Instrument data" style="ellipse;whiteSpace=wrap;html=1;" vertex="1" parent="1">
          <mxGeometry y="190" width="120" height="80" as="geometry" />
        </mxCell>
        <mxCell id="xOZsmV_-RZfwgsU9dRdy-4" value="Student data" style="ellipse;whiteSpace=wrap;html=1;" vertex="1" parent="1">
          <mxGeometry x="160" y="190" width="120" height="80" as="geometry" />
        </mxCell>
        <mxCell id="xOZsmV_-RZfwgsU9dRdy-15" value="All Schools in district" style="ellipse;whiteSpace=wrap;html=1;" vertex="1" parent="1">
          <mxGeometry x="560" y="160" width="120" height="80" as="geometry" />
        </mxCell>
        <mxCell id="xOZsmV_-RZfwgsU9dRdy-26" style="edgeStyle=orthogonalEdgeStyle;rounded=0;orthogonalLoop=1;jettySize=auto;html=1;exitX=0;exitY=1;exitDx=0;exitDy=0;entryX=0.5;entryY=0;entryDx=0;entryDy=0;" edge="1" parent="1" source="xOZsmV_-RZfwgsU9dRdy-17" target="xOZsmV_-RZfwgsU9dRdy-18">
          <mxGeometry relative="1" as="geometry" />
        </mxCell>
        <mxCell id="xOZsmV_-RZfwgsU9dRdy-32" style="edgeStyle=orthogonalEdgeStyle;rounded=0;orthogonalLoop=1;jettySize=auto;html=1;exitX=1;exitY=1;exitDx=0;exitDy=0;entryX=0.5;entryY=0;entryDx=0;entryDy=0;" edge="1" parent="1" source="xOZsmV_-RZfwgsU9dRdy-17" target="xOZsmV_-RZfwgsU9dRdy-19">
          <mxGeometry relative="1" as="geometry" />
        </mxCell>
        <mxCell id="xOZsmV_-RZfwgsU9dRdy-17" value="Student dashBoard" style="ellipse;whiteSpace=wrap;html=1;" vertex="1" parent="1">
          <mxGeometry x="90" y="550" width="110" height="80" as="geometry" />
        </mxCell>
        <mxCell id="xOZsmV_-RZfwgsU9dRdy-33" style="edgeStyle=orthogonalEdgeStyle;rounded=0;orthogonalLoop=1;jettySize=auto;html=1;exitX=0.5;exitY=1;exitDx=0;exitDy=0;entryX=0.5;entryY=0;entryDx=0;entryDy=0;" edge="1" parent="1" source="xOZsmV_-RZfwgsU9dRdy-18" target="xOZsmV_-RZfwgsU9dRdy-27">
          <mxGeometry relative="1" as="geometry" />
        </mxCell>
        <mxCell id="xOZsmV_-RZfwgsU9dRdy-18" value="instrument availability" style="ellipse;whiteSpace=wrap;html=1;" vertex="1" parent="1">
          <mxGeometry x="40" y="670" width="120" height="70" as="geometry" />
        </mxCell>
        <mxCell id="xOZsmV_-RZfwgsU9dRdy-19" value="Assignments" style="ellipse;whiteSpace=wrap;html=1;" vertex="1" parent="1">
          <mxGeometry x="170" y="670" width="120" height="80" as="geometry" />
        </mxCell>
        <mxCell id="xOZsmV_-RZfwgsU9dRdy-21" style="edgeStyle=orthogonalEdgeStyle;rounded=0;orthogonalLoop=1;jettySize=auto;html=1;exitX=0.5;exitY=1;exitDx=0;exitDy=0;entryX=0.5;entryY=0;entryDx=0;entryDy=0;" edge="1" parent="1" source="xOZsmV_-RZfwgsU9dRdy-19" target="xOZsmV_-RZfwgsU9dRdy-22">
          <mxGeometry relative="1" as="geometry">
            <mxPoint x="228.55999999999995" y="768.75" as="targetPoint" />
          </mxGeometry>
        </mxCell>
        <mxCell id="xOZsmV_-RZfwgsU9dRdy-22" value="List" style="swimlane;fontStyle=0;childLayout=stackLayout;horizontal=1;startSize=26;fillColor=none;horizontalStack=0;resizeParent=1;resizeParentMax=0;resizeLast=0;collapsible=1;marginBottom=0;html=1;" vertex="1" parent="1">
          <mxGeometry x="160" y="780" width="140" height="78" as="geometry" />
        </mxCell>
        <mxCell id="xOZsmV_-RZfwgsU9dRdy-23" value="Assignments" style="text;strokeColor=none;fillColor=none;align=left;verticalAlign=top;spacingLeft=4;spacingRight=4;overflow=hidden;rotatable=0;points=[[0,0.5],[1,0.5]];portConstraint=eastwest;whiteSpace=wrap;html=1;" vertex="1" parent="xOZsmV_-RZfwgsU9dRdy-22">
          <mxGeometry y="26" width="140" height="26" as="geometry" />
        </mxCell>
        <mxCell id="xOZsmV_-RZfwgsU9dRdy-24" value="Grades" style="text;strokeColor=none;fillColor=none;align=left;verticalAlign=top;spacingLeft=4;spacingRight=4;overflow=hidden;rotatable=0;points=[[0,0.5],[1,0.5]];portConstraint=eastwest;whiteSpace=wrap;html=1;" vertex="1" parent="xOZsmV_-RZfwgsU9dRdy-22">
          <mxGeometry y="52" width="140" height="26" as="geometry" />
        </mxCell>
        <mxCell id="xOZsmV_-RZfwgsU9dRdy-27" value="List" style="swimlane;fontStyle=0;childLayout=stackLayout;horizontal=1;startSize=26;fillColor=none;horizontalStack=0;resizeParent=1;resizeParentMax=0;resizeLast=0;collapsible=1;marginBottom=0;html=1;" vertex="1" parent="1">
          <mxGeometry x="10" y="780" width="140" height="90" as="geometry" />
        </mxCell>
        <mxCell id="xOZsmV_-RZfwgsU9dRdy-28" value="Push notification if a wanted instrument is availble to email address" style="text;strokeColor=none;fillColor=none;align=left;verticalAlign=top;spacingLeft=4;spacingRight=4;overflow=hidden;rotatable=0;points=[[0,0.5],[1,0.5]];portConstraint=eastwest;whiteSpace=wrap;html=1;" vertex="1" parent="xOZsmV_-RZfwgsU9dRdy-27">
          <mxGeometry y="26" width="140" height="64" as="geometry" />
        </mxCell>
        <object label="List" placeholders="1" type="" brand="" serialNumber="" assignedTo="" id="xOZsmV_-RZfwgsU9dRdy-65">
          <mxCell style="swimlane;fontStyle=0;childLayout=stackLayout;horizontal=1;startSize=26;horizontalStack=0;resizeParent=1;resizeParentMax=0;resizeLast=0;collapsible=1;marginBottom=0;align=center;fontSize=14;rounded=1;shadow=0;glass=0;" vertex="1" parent="1">
            <mxGeometry y="310" width="160" height="176" as="geometry" />
          </mxCell>
        </object>
        <mxCell id="xOZsmV_-RZfwgsU9dRdy-66" value="type" style="text;strokeColor=none;fillColor=none;spacingLeft=4;spacingRight=4;overflow=hidden;rotatable=0;points=[[0,0.5],[1,0.5]];portConstraint=eastwest;fontSize=12;whiteSpace=wrap;html=1;" vertex="1" parent="xOZsmV_-RZfwgsU9dRdy-65">
          <mxGeometry y="26" width="160" height="30" as="geometry" />
        </mxCell>
        <mxCell id="xOZsmV_-RZfwgsU9dRdy-67" value="brand" style="text;strokeColor=none;fillColor=none;spacingLeft=4;spacingRight=4;overflow=hidden;rotatable=0;points=[[0,0.5],[1,0.5]];portConstraint=eastwest;fontSize=12;whiteSpace=wrap;html=1;" vertex="1" parent="xOZsmV_-RZfwgsU9dRdy-65">
          <mxGeometry y="56" width="160" height="30" as="geometry" />
        </mxCell>
        <mxCell id="xOZsmV_-RZfwgsU9dRdy-68" value="serialNumber" style="text;strokeColor=none;fillColor=none;spacingLeft=4;spacingRight=4;overflow=hidden;rotatable=0;points=[[0,0.5],[1,0.5]];portConstraint=eastwest;fontSize=12;whiteSpace=wrap;html=1;" vertex="1" parent="xOZsmV_-RZfwgsU9dRdy-65">
          <mxGeometry y="86" width="160" height="30" as="geometry" />
        </mxCell>
        <mxCell id="xOZsmV_-RZfwgsU9dRdy-71" value="rentStatus" style="text;strokeColor=none;fillColor=none;spacingLeft=4;spacingRight=4;overflow=hidden;rotatable=0;points=[[0,0.5],[1,0.5]];portConstraint=eastwest;fontSize=12;whiteSpace=wrap;html=1;" vertex="1" parent="xOZsmV_-RZfwgsU9dRdy-65">
          <mxGeometry y="116" width="160" height="30" as="geometry" />
        </mxCell>
        <mxCell id="xOZsmV_-RZfwgsU9dRdy-70" value="assignTo" style="text;strokeColor=none;fillColor=none;spacingLeft=4;spacingRight=4;overflow=hidden;rotatable=0;points=[[0,0.5],[1,0.5]];portConstraint=eastwest;fontSize=12;whiteSpace=wrap;html=1;" vertex="1" parent="xOZsmV_-RZfwgsU9dRdy-65">
          <mxGeometry y="146" width="160" height="30" as="geometry" />
        </mxCell>
        <mxCell id="xOZsmV_-RZfwgsU9dRdy-72" value="List" style="swimlane;fontStyle=0;childLayout=stackLayout;horizontal=1;startSize=26;horizontalStack=0;resizeParent=1;resizeParentMax=0;resizeLast=0;collapsible=1;marginBottom=0;align=center;fontSize=14;rounded=1;" vertex="1" parent="1">
          <mxGeometry x="220" y="340" width="160" height="146" as="geometry" />
        </mxCell>
        <mxCell id="xOZsmV_-RZfwgsU9dRdy-73" value="firstName" style="text;strokeColor=none;fillColor=none;spacingLeft=4;spacingRight=4;overflow=hidden;rotatable=0;points=[[0,0.5],[1,0.5]];portConstraint=eastwest;fontSize=12;whiteSpace=wrap;html=1;" vertex="1" parent="xOZsmV_-RZfwgsU9dRdy-72">
          <mxGeometry y="26" width="160" height="30" as="geometry" />
        </mxCell>
        <mxCell id="xOZsmV_-RZfwgsU9dRdy-74" value="lastName" style="text;strokeColor=none;fillColor=none;spacingLeft=4;spacingRight=4;overflow=hidden;rotatable=0;points=[[0,0.5],[1,0.5]];portConstraint=eastwest;fontSize=12;whiteSpace=wrap;html=1;" vertex="1" parent="xOZsmV_-RZfwgsU9dRdy-72">
          <mxGeometry y="56" width="160" height="30" as="geometry" />
        </mxCell>
        <mxCell id="xOZsmV_-RZfwgsU9dRdy-75" value="student id number" style="text;strokeColor=none;fillColor=none;spacingLeft=4;spacingRight=4;overflow=hidden;rotatable=0;points=[[0,0.5],[1,0.5]];portConstraint=eastwest;fontSize=12;whiteSpace=wrap;html=1;" vertex="1" parent="xOZsmV_-RZfwgsU9dRdy-72">
          <mxGeometry y="86" width="160" height="30" as="geometry" />
        </mxCell>
        <mxCell id="xOZsmV_-RZfwgsU9dRdy-77" value="instrument" style="text;strokeColor=none;fillColor=none;spacingLeft=4;spacingRight=4;overflow=hidden;rotatable=0;points=[[0,0.5],[1,0.5]];portConstraint=eastwest;fontSize=12;whiteSpace=wrap;html=1;" vertex="1" parent="xOZsmV_-RZfwgsU9dRdy-72">
          <mxGeometry y="116" width="160" height="30" as="geometry" />
        </mxCell>
        <mxCell id="xOZsmV_-RZfwgsU9dRdy-78" style="edgeStyle=orthogonalEdgeStyle;rounded=0;orthogonalLoop=1;jettySize=auto;html=1;exitX=1;exitY=0.5;exitDx=0;exitDy=0;" edge="1" parent="1" source="xOZsmV_-RZfwgsU9dRdy-70">
          <mxGeometry relative="1" as="geometry">
            <mxPoint x="160" y="441" as="targetPoint" />
          </mxGeometry>
        </mxCell>
        <mxCell id="xOZsmV_-RZfwgsU9dRdy-79" value="" style="edgeStyle=entityRelationEdgeStyle;fontSize=12;html=1;endArrow=ERmandOne;startArrow=ERmandOne;rounded=0;entryX=0;entryY=0.5;entryDx=0;entryDy=0;" edge="1" parent="1" source="xOZsmV_-RZfwgsU9dRdy-70" target="xOZsmV_-RZfwgsU9dRdy-77">
          <mxGeometry width="100" height="100" relative="1" as="geometry">
            <mxPoint x="150" y="440" as="sourcePoint" />
            <mxPoint x="250" y="340" as="targetPoint" />
          </mxGeometry>
        </mxCell>
        <mxCell id="xOZsmV_-RZfwgsU9dRdy-80" style="edgeStyle=orthogonalEdgeStyle;rounded=0;orthogonalLoop=1;jettySize=auto;html=1;exitX=0.5;exitY=1;exitDx=0;exitDy=0;entryX=0.163;entryY=0.017;entryDx=0;entryDy=0;entryPerimeter=0;" edge="1" parent="1" source="xOZsmV_-RZfwgsU9dRdy-4" target="xOZsmV_-RZfwgsU9dRdy-72">
          <mxGeometry relative="1" as="geometry" />
        </mxCell>
      </root>
    </mxGraphModel>
  </diagram>
</mxfile>
